<?xml version="1.0" encoding="UTF-8" standalone="no"?> <svg xmlns="http://www.w3.org/2000/svg" xmlns:xlink="http://www.w3.org/1999/xlink" viewBox="0 0 64 64"><defs><style>.cls-1{fill:url(#linear-gradient);}</style><linearGradient id="linear-gradient" x1="3.4" y1="32" x2="60.6" y2="32" gradientUnits="userSpaceOnUse"><stop offset="0" stop-color="#5bb4f6"/><stop offset="0.61" stop-color="#2191e5"/><stop offset="1" stop-color="#007edb"/></linearGradient></defs><g id="Layer_26" data-name="Layer 26"><path class="cls-1" d="M32,3.4h0A28.59,28.59,0,0,0,3.4,32h0A28.59,28.59,0,0,0,32,60.6h0A28.59,28.59,0,0,0,60.6,32h0A28.59,28.59,0,0,0,32,3.4ZM48.73,38.08a4.31,4.31,0,0,0-4.26,3.72h-2V23.28h4.36V34.21a.6.6,0,0,0,.6.6h7.37v7H53A4.3,4.3,0,0,0,48.73,38.08Zm3.12,4.32a3.12,3.12,0,1,1-3.12-3.12A3.12,3.12,0,0,1,51.85,42.4ZM50.28,23.28l4.25,10.33H48V23.28ZM27.16,32.77H16.71V30H29a.6.6,0,0,0,.6-.6.6.6,0,0,0-.6-.6H16.71V26h3.43a.6.6,0,1,0,0-1.2H16.71V22.08H27.16a.6.6,0,0,0,0-1.2H16.71v-4.4h20.9V38.15H16.71V34H27.16a.6.6,0,0,0,.6-.6A.6.6,0,0,0,27.16,32.77ZM16.71,39.35H23.2A4.34,4.34,0,0,0,22,41.8H16.71Zm8.86,0h1.35a3.13,3.13,0,1,1-1.35,0Zm3.72,0h12V41.8H30.51A4.34,4.34,0,0,0,29.29,39.35Z"/></g></svg>